<svg id="Capa_1" data-name="Capa 1" xmlns="http://www.w3.org/2000/svg" viewBox="0 0 616.54 228.37"><defs><style>.cls-1{font-size:27.69px;fill:#36343a;font-family:BigJohnPRO-Bold, Big John PRO;font-weight:700;}.cls-2{letter-spacing:0em;}.cls-3{letter-spacing:0.01em;}.cls-4{letter-spacing:0.01em;}.cls-5{letter-spacing:0.01em;}.cls-6{letter-spacing:0.01em;}.cls-7{letter-spacing:0em;}.cls-8{letter-spacing:0em;}.cls-9{letter-spacing:0em;}.cls-10{letter-spacing:-0.05em;}.cls-11{letter-spacing:-0.01em;}.cls-12{letter-spacing:-0.01em;}.cls-13{letter-spacing:-0.02em;}.cls-14{letter-spacing:0.01em;}.cls-15{letter-spacing:-0.01em;}.cls-16{fill:#ffbe00;}</style></defs><text class="cls-1" transform="translate(128.52 180.33)"><tspan class="cls-2">H</tspan><tspan class="cls-3" x="22.31" y="0">U</tspan><tspan class="cls-4" x="43.09" y="0">M</tspan><tspan class="cls-5" x="69.44" y="0">M</tspan><tspan class="cls-6" x="95.7" y="0">U</tspan><tspan class="cls-7" x="116.58" y="0">S </tspan><tspan class="cls-8" x="140.78" y="0">D</tspan><tspan class="cls-9" x="162.53" y="0">E </tspan><tspan class="cls-10" x="186.5" y="0">G</tspan><tspan class="cls-11" x="208.42" y="0">A</tspan><tspan class="cls-12" x="231.21" y="0">R</tspan><tspan class="cls-13" x="252.44" y="0">B</tspan><tspan class="cls-8" x="271.71" y="0">A</tspan><tspan class="cls-14" x="294.64" y="0">N</tspan><tspan class="cls-15" x="316.67" y="0">Z</tspan><tspan x="336" y="0">O</tspan></text><path class="cls-16" d="M25.37,39.43H37.06l40.18,36.5,40.05-36.5H129v98.48H103V87.35L77.24,110.86,51.37,87.49v50.42h-26Z"/><path class="cls-16" d="M137.78,39.43H199v21.4H163.65v16H194.9v21.8H163.65v18.12H199v21.14H137.78Z"/><path class="cls-16" d="M205.07,107.84h26.26c0,4.2,3.81,7.62,9.58,7.62,5.26,0,9.33-3,9.33-7.62,0-4.86-4.47-7.75-9.59-7.75-19,0-35.45-13.52-35.45-30.33S220,39.43,240.91,39.43c19.7,0,35.59,13.39,35.59,30.2H250.37c0-4.08-4.07-7.62-9.46-7.62-5.64,0-9.45,3-9.45,7.62s3.81,7.74,9.45,7.74c20.1,0,35.59,13.66,35.59,30.34s-15.49,30.2-35.19,30.2C219.77,137.91,205.07,123.86,205.07,107.84Z"/><path class="cls-16" d="M309.2,65H283.6V39.29h77.6V65H335.07V88.59L309.2,125Z"/><path class="cls-16" d="M364.46,88.67,390.33,52.3v85.61H364.46Z"/><path class="cls-16" d="M442,65H400V39h86.8L444.91,111.6h42v25.87h-86.8Z"/><path class="cls-16" d="M541.93,137.78a49.24,49.24,0,1,1,49.24-49.11A49,49,0,0,1,541.93,137.78Zm0-72.75a23.51,23.51,0,1,0,23.5,23.51A23.45,23.45,0,0,0,541.93,65Z"/></svg>